<mxfile host="app.diagrams.net" modified="2023-12-20T01:51:58.333Z" agent="Mozilla/5.0 (Windows NT 10.0; Win64; x64) AppleWebKit/537.36 (KHTML, like Gecko) Chrome/121.0.0.0 Safari/537.36 Edg/121.0.0.0" etag="AZkT2b-V5gX54NJaEUHL" version="22.1.11" type="github">
  <diagram name="第 1 页" id="z7fpPu16EYKY_UzUYYsx">
    <mxGraphModel dx="1149" dy="754" grid="1" gridSize="10" guides="1" tooltips="1" connect="1" arrows="1" fold="1" page="1" pageScale="1" pageWidth="827" pageHeight="1169" math="0" shadow="0">
      <root>
        <mxCell id="0" />
        <mxCell id="1" parent="0" />
        <mxCell id="rZ2QNPtWmysEx4CotY9I-33" style="rounded=0;orthogonalLoop=1;jettySize=auto;html=1;exitX=0.5;exitY=0;exitDx=0;exitDy=0;entryX=0.5;entryY=1;entryDx=0;entryDy=0;endArrow=none;endFill=0;fontSize=15;" parent="1" source="rZ2QNPtWmysEx4CotY9I-1" target="rZ2QNPtWmysEx4CotY9I-3" edge="1">
          <mxGeometry relative="1" as="geometry" />
        </mxCell>
        <mxCell id="rZ2QNPtWmysEx4CotY9I-35" style="edgeStyle=none;shape=connector;rounded=0;orthogonalLoop=1;jettySize=auto;html=1;exitX=0.5;exitY=0;exitDx=0;exitDy=0;entryX=0.5;entryY=1;entryDx=0;entryDy=0;labelBackgroundColor=default;strokeColor=default;fontFamily=Helvetica;fontSize=15;fontColor=default;endArrow=none;endFill=0;" parent="1" source="rZ2QNPtWmysEx4CotY9I-1" target="rZ2QNPtWmysEx4CotY9I-22" edge="1">
          <mxGeometry relative="1" as="geometry" />
        </mxCell>
        <mxCell id="rZ2QNPtWmysEx4CotY9I-36" style="edgeStyle=none;shape=connector;rounded=0;orthogonalLoop=1;jettySize=auto;html=1;exitX=0.5;exitY=0;exitDx=0;exitDy=0;entryX=0.5;entryY=1;entryDx=0;entryDy=0;labelBackgroundColor=default;strokeColor=default;fontFamily=Helvetica;fontSize=15;fontColor=default;endArrow=none;endFill=0;" parent="1" source="rZ2QNPtWmysEx4CotY9I-1" target="rZ2QNPtWmysEx4CotY9I-25" edge="1">
          <mxGeometry relative="1" as="geometry" />
        </mxCell>
        <mxCell id="rZ2QNPtWmysEx4CotY9I-37" style="edgeStyle=none;shape=connector;rounded=0;orthogonalLoop=1;jettySize=auto;html=1;exitX=0.5;exitY=0;exitDx=0;exitDy=0;entryX=0.5;entryY=1;entryDx=0;entryDy=0;labelBackgroundColor=default;strokeColor=default;fontFamily=Helvetica;fontSize=15;fontColor=default;endArrow=none;endFill=0;" parent="1" source="rZ2QNPtWmysEx4CotY9I-1" target="rZ2QNPtWmysEx4CotY9I-26" edge="1">
          <mxGeometry relative="1" as="geometry" />
        </mxCell>
        <mxCell id="rZ2QNPtWmysEx4CotY9I-1" value="" style="ellipse;whiteSpace=wrap;html=1;aspect=fixed;direction=south;fillColor=#d5e8d4;strokeColor=#82b366;fontSize=15;" parent="1" vertex="1">
          <mxGeometry x="130" y="230" width="40" height="40" as="geometry" />
        </mxCell>
        <mxCell id="rZ2QNPtWmysEx4CotY9I-49" style="edgeStyle=none;shape=connector;rounded=0;orthogonalLoop=1;jettySize=auto;html=1;exitX=0.5;exitY=0;exitDx=0;exitDy=0;entryX=0.5;entryY=1;entryDx=0;entryDy=0;labelBackgroundColor=default;strokeColor=default;fontFamily=Helvetica;fontSize=15;fontColor=default;endArrow=none;endFill=0;" parent="1" source="rZ2QNPtWmysEx4CotY9I-3" target="rZ2QNPtWmysEx4CotY9I-5" edge="1">
          <mxGeometry relative="1" as="geometry" />
        </mxCell>
        <mxCell id="rZ2QNPtWmysEx4CotY9I-50" style="edgeStyle=none;shape=connector;rounded=0;orthogonalLoop=1;jettySize=auto;html=1;exitX=0.5;exitY=0;exitDx=0;exitDy=0;entryX=0.5;entryY=1;entryDx=0;entryDy=0;labelBackgroundColor=default;strokeColor=default;fontFamily=Helvetica;fontSize=15;fontColor=default;endArrow=none;endFill=0;" parent="1" source="rZ2QNPtWmysEx4CotY9I-3" target="rZ2QNPtWmysEx4CotY9I-18" edge="1">
          <mxGeometry relative="1" as="geometry" />
        </mxCell>
        <mxCell id="rZ2QNPtWmysEx4CotY9I-55" style="edgeStyle=none;shape=connector;rounded=0;orthogonalLoop=1;jettySize=auto;html=1;exitX=0.5;exitY=0;exitDx=0;exitDy=0;entryX=0.5;entryY=1;entryDx=0;entryDy=0;labelBackgroundColor=default;strokeColor=default;fontFamily=Helvetica;fontSize=15;fontColor=default;endArrow=none;endFill=0;" parent="1" source="rZ2QNPtWmysEx4CotY9I-3" target="rZ2QNPtWmysEx4CotY9I-19" edge="1">
          <mxGeometry relative="1" as="geometry" />
        </mxCell>
        <mxCell id="rZ2QNPtWmysEx4CotY9I-3" value="" style="ellipse;whiteSpace=wrap;html=1;aspect=fixed;direction=south;fillColor=#dae8fc;strokeColor=#6c8ebf;fontSize=15;" parent="1" vertex="1">
          <mxGeometry x="260" y="210" width="40" height="40" as="geometry" />
        </mxCell>
        <mxCell id="rZ2QNPtWmysEx4CotY9I-4" value="隐含层" style="text;html=1;strokeColor=none;fillColor=none;align=center;verticalAlign=middle;whiteSpace=wrap;rounded=0;fontFamily=楷体;fontStyle=1;fontSize=15;labelBackgroundColor=none;" parent="1" vertex="1">
          <mxGeometry x="250" y="178" width="60" height="30" as="geometry" />
        </mxCell>
        <mxCell id="rZ2QNPtWmysEx4CotY9I-62" style="edgeStyle=none;shape=connector;rounded=0;orthogonalLoop=1;jettySize=auto;html=1;exitX=0.5;exitY=0;exitDx=0;exitDy=0;entryX=0;entryY=0.5;entryDx=0;entryDy=0;labelBackgroundColor=default;strokeColor=#FF0000;fontFamily=Helvetica;fontSize=15;fontColor=default;endArrow=classic;endFill=1;" parent="1" source="rZ2QNPtWmysEx4CotY9I-5" target="rZ2QNPtWmysEx4CotY9I-28" edge="1">
          <mxGeometry relative="1" as="geometry" />
        </mxCell>
        <mxCell id="rZ2QNPtWmysEx4CotY9I-5" value="" style="ellipse;whiteSpace=wrap;html=1;aspect=fixed;direction=south;fillColor=#ffe6cc;strokeColor=#d79b00;fontSize=15;" parent="1" vertex="1">
          <mxGeometry x="394" y="230" width="40" height="40" as="geometry" />
        </mxCell>
        <mxCell id="rZ2QNPtWmysEx4CotY9I-6" value="输出层" style="text;html=1;strokeColor=none;fillColor=none;align=center;verticalAlign=middle;whiteSpace=wrap;rounded=0;fontFamily=楷体;fontStyle=1;fontSize=15;labelBackgroundColor=none;" parent="1" vertex="1">
          <mxGeometry x="384" y="178" width="60" height="30" as="geometry" />
        </mxCell>
        <mxCell id="rZ2QNPtWmysEx4CotY9I-38" style="edgeStyle=none;shape=connector;rounded=0;orthogonalLoop=1;jettySize=auto;html=1;exitX=1;exitY=0.5;exitDx=0;exitDy=0;labelBackgroundColor=none;strokeColor=#FF0000;fontFamily=Helvetica;fontSize=15;fontColor=#FF0000;endArrow=classic;" parent="1" source="rZ2QNPtWmysEx4CotY9I-7" target="rZ2QNPtWmysEx4CotY9I-1" edge="1">
          <mxGeometry relative="1" as="geometry" />
        </mxCell>
        <mxCell id="rZ2QNPtWmysEx4CotY9I-7" value="&lt;font style=&quot;font-size: 15px;&quot;&gt;x&lt;/font&gt;&lt;sub style=&quot;&quot;&gt;&lt;font style=&quot;font-size: 10px;&quot;&gt;1&lt;/font&gt;&lt;/sub&gt;" style="text;html=1;strokeColor=none;fillColor=none;align=center;verticalAlign=middle;whiteSpace=wrap;rounded=0;fontFamily=Times New Roman;fontStyle=1;fontColor=#FF0000;fontSize=15;" parent="1" vertex="1">
          <mxGeometry x="80" y="235" width="20" height="30" as="geometry" />
        </mxCell>
        <mxCell id="rZ2QNPtWmysEx4CotY9I-39" style="edgeStyle=none;shape=connector;rounded=0;orthogonalLoop=1;jettySize=auto;html=1;exitX=1;exitY=0.5;exitDx=0;exitDy=0;entryX=0.5;entryY=1;entryDx=0;entryDy=0;labelBackgroundColor=none;strokeColor=#FF0000;fontFamily=Helvetica;fontSize=15;fontColor=#FF0000;endArrow=classic;" parent="1" source="rZ2QNPtWmysEx4CotY9I-8" target="rZ2QNPtWmysEx4CotY9I-10" edge="1">
          <mxGeometry relative="1" as="geometry" />
        </mxCell>
        <mxCell id="rZ2QNPtWmysEx4CotY9I-8" value="&lt;font style=&quot;font-size: 15px;&quot;&gt;x&lt;/font&gt;&lt;sub style=&quot;&quot;&gt;&lt;font style=&quot;font-size: 10px;&quot;&gt;i&lt;/font&gt;&lt;/sub&gt;" style="text;html=1;strokeColor=none;fillColor=none;align=center;verticalAlign=middle;whiteSpace=wrap;rounded=0;fontFamily=Times New Roman;fontStyle=1;fontColor=#FF0000;fontSize=15;" parent="1" vertex="1">
          <mxGeometry x="80" y="325" width="20" height="30" as="geometry" />
        </mxCell>
        <mxCell id="rZ2QNPtWmysEx4CotY9I-9" value="&lt;span style=&quot;font-size: 15px;&quot;&gt;···&lt;/span&gt;" style="text;html=1;strokeColor=none;fillColor=none;align=center;verticalAlign=middle;whiteSpace=wrap;rounded=0;fontFamily=Times New Roman;fontStyle=1;rotation=90;fontSize=15;" parent="1" vertex="1">
          <mxGeometry x="140" y="280" width="20" height="30" as="geometry" />
        </mxCell>
        <mxCell id="rZ2QNPtWmysEx4CotY9I-41" style="edgeStyle=none;shape=connector;rounded=0;orthogonalLoop=1;jettySize=auto;html=1;exitX=0.5;exitY=0;exitDx=0;exitDy=0;entryX=0.5;entryY=1;entryDx=0;entryDy=0;labelBackgroundColor=default;strokeColor=default;fontFamily=Helvetica;fontSize=15;fontColor=default;endArrow=none;endFill=0;" parent="1" source="rZ2QNPtWmysEx4CotY9I-10" target="rZ2QNPtWmysEx4CotY9I-3" edge="1">
          <mxGeometry relative="1" as="geometry" />
        </mxCell>
        <mxCell id="rZ2QNPtWmysEx4CotY9I-42" style="edgeStyle=none;shape=connector;rounded=0;orthogonalLoop=1;jettySize=auto;html=1;exitX=0.5;exitY=0;exitDx=0;exitDy=0;entryX=0.5;entryY=1;entryDx=0;entryDy=0;labelBackgroundColor=default;strokeColor=default;fontFamily=Helvetica;fontSize=15;fontColor=default;endArrow=none;endFill=0;" parent="1" source="rZ2QNPtWmysEx4CotY9I-10" target="rZ2QNPtWmysEx4CotY9I-22" edge="1">
          <mxGeometry relative="1" as="geometry" />
        </mxCell>
        <mxCell id="rZ2QNPtWmysEx4CotY9I-44" style="edgeStyle=none;shape=connector;rounded=0;orthogonalLoop=1;jettySize=auto;html=1;exitX=0.5;exitY=0;exitDx=0;exitDy=0;entryX=0.5;entryY=1;entryDx=0;entryDy=0;labelBackgroundColor=default;strokeColor=default;fontFamily=Helvetica;fontSize=15;fontColor=default;endArrow=none;endFill=0;" parent="1" source="rZ2QNPtWmysEx4CotY9I-10" target="rZ2QNPtWmysEx4CotY9I-26" edge="1">
          <mxGeometry relative="1" as="geometry" />
        </mxCell>
        <mxCell id="rZ2QNPtWmysEx4CotY9I-10" value="" style="ellipse;whiteSpace=wrap;html=1;aspect=fixed;direction=south;fillColor=#d5e8d4;strokeColor=#82b366;fontSize=15;" parent="1" vertex="1">
          <mxGeometry x="130" y="320" width="40" height="40" as="geometry" />
        </mxCell>
        <mxCell id="rZ2QNPtWmysEx4CotY9I-11" style="edgeStyle=orthogonalEdgeStyle;rounded=0;orthogonalLoop=1;jettySize=auto;html=1;exitX=1;exitY=0.5;exitDx=0;exitDy=0;fontSize=15;" parent="1" source="rZ2QNPtWmysEx4CotY9I-9" target="rZ2QNPtWmysEx4CotY9I-9" edge="1">
          <mxGeometry relative="1" as="geometry" />
        </mxCell>
        <mxCell id="rZ2QNPtWmysEx4CotY9I-13" value="&lt;span style=&quot;font-size: 15px;&quot;&gt;···&lt;/span&gt;" style="text;html=1;strokeColor=none;fillColor=none;align=center;verticalAlign=middle;whiteSpace=wrap;rounded=0;fontFamily=Times New Roman;fontStyle=1;rotation=90;fontSize=15;" parent="1" vertex="1">
          <mxGeometry x="80" y="280" width="20" height="30" as="geometry" />
        </mxCell>
        <mxCell id="rZ2QNPtWmysEx4CotY9I-45" style="edgeStyle=none;shape=connector;rounded=0;orthogonalLoop=1;jettySize=auto;html=1;exitX=0.5;exitY=0;exitDx=0;exitDy=0;entryX=0.5;entryY=1;entryDx=0;entryDy=0;labelBackgroundColor=default;strokeColor=default;fontFamily=Helvetica;fontSize=15;fontColor=default;endArrow=none;endFill=0;" parent="1" source="rZ2QNPtWmysEx4CotY9I-14" target="rZ2QNPtWmysEx4CotY9I-3" edge="1">
          <mxGeometry relative="1" as="geometry" />
        </mxCell>
        <mxCell id="rZ2QNPtWmysEx4CotY9I-46" style="edgeStyle=none;shape=connector;rounded=0;orthogonalLoop=1;jettySize=auto;html=1;exitX=0.5;exitY=0;exitDx=0;exitDy=0;entryX=0.5;entryY=1;entryDx=0;entryDy=0;labelBackgroundColor=default;strokeColor=default;fontFamily=Helvetica;fontSize=15;fontColor=default;endArrow=none;endFill=0;" parent="1" source="rZ2QNPtWmysEx4CotY9I-14" target="rZ2QNPtWmysEx4CotY9I-22" edge="1">
          <mxGeometry relative="1" as="geometry" />
        </mxCell>
        <mxCell id="rZ2QNPtWmysEx4CotY9I-47" style="edgeStyle=none;shape=connector;rounded=0;orthogonalLoop=1;jettySize=auto;html=1;exitX=0.5;exitY=0;exitDx=0;exitDy=0;entryX=0.5;entryY=1;entryDx=0;entryDy=0;labelBackgroundColor=default;strokeColor=default;fontFamily=Helvetica;fontSize=15;fontColor=default;endArrow=none;endFill=0;" parent="1" source="rZ2QNPtWmysEx4CotY9I-14" target="rZ2QNPtWmysEx4CotY9I-25" edge="1">
          <mxGeometry relative="1" as="geometry" />
        </mxCell>
        <mxCell id="rZ2QNPtWmysEx4CotY9I-48" style="edgeStyle=none;shape=connector;rounded=0;orthogonalLoop=1;jettySize=auto;html=1;exitX=0.5;exitY=0;exitDx=0;exitDy=0;entryX=0.5;entryY=1;entryDx=0;entryDy=0;labelBackgroundColor=default;strokeColor=default;fontFamily=Helvetica;fontSize=15;fontColor=default;endArrow=none;endFill=0;" parent="1" source="rZ2QNPtWmysEx4CotY9I-14" target="rZ2QNPtWmysEx4CotY9I-26" edge="1">
          <mxGeometry relative="1" as="geometry" />
        </mxCell>
        <mxCell id="rZ2QNPtWmysEx4CotY9I-14" value="" style="ellipse;whiteSpace=wrap;html=1;aspect=fixed;direction=south;fillColor=#d5e8d4;strokeColor=#82b366;fontSize=15;" parent="1" vertex="1">
          <mxGeometry x="130" y="410" width="40" height="40" as="geometry" />
        </mxCell>
        <mxCell id="rZ2QNPtWmysEx4CotY9I-15" value="&lt;span style=&quot;font-size: 15px;&quot;&gt;···&lt;/span&gt;" style="text;html=1;strokeColor=none;fillColor=none;align=center;verticalAlign=middle;whiteSpace=wrap;rounded=0;fontFamily=Times New Roman;fontStyle=1;rotation=90;fontSize=15;" parent="1" vertex="1">
          <mxGeometry x="140" y="370" width="20" height="30" as="geometry" />
        </mxCell>
        <mxCell id="rZ2QNPtWmysEx4CotY9I-16" value="&lt;span style=&quot;font-size: 15px;&quot;&gt;···&lt;/span&gt;" style="text;html=1;strokeColor=none;fillColor=none;align=center;verticalAlign=middle;whiteSpace=wrap;rounded=0;fontFamily=Times New Roman;fontStyle=1;rotation=90;fontSize=15;" parent="1" vertex="1">
          <mxGeometry x="80" y="370" width="20" height="30" as="geometry" />
        </mxCell>
        <mxCell id="rZ2QNPtWmysEx4CotY9I-40" style="edgeStyle=none;shape=connector;rounded=0;orthogonalLoop=1;jettySize=auto;html=1;exitX=1;exitY=0.5;exitDx=0;exitDy=0;entryX=0.5;entryY=1;entryDx=0;entryDy=0;labelBackgroundColor=none;strokeColor=#FF0000;fontFamily=Helvetica;fontSize=15;fontColor=#FF0000;endArrow=classic;" parent="1" source="rZ2QNPtWmysEx4CotY9I-17" target="rZ2QNPtWmysEx4CotY9I-14" edge="1">
          <mxGeometry relative="1" as="geometry" />
        </mxCell>
        <mxCell id="rZ2QNPtWmysEx4CotY9I-17" value="&lt;font style=&quot;font-size: 15px;&quot;&gt;x&lt;/font&gt;&lt;sub style=&quot;&quot;&gt;&lt;font style=&quot;font-size: 10px;&quot;&gt;n&lt;/font&gt;&lt;/sub&gt;" style="text;html=1;strokeColor=none;fillColor=none;align=center;verticalAlign=middle;whiteSpace=wrap;rounded=0;fontFamily=Times New Roman;fontStyle=1;fontColor=#FF0000;fontSize=15;" parent="1" vertex="1">
          <mxGeometry x="80" y="415" width="20" height="30" as="geometry" />
        </mxCell>
        <mxCell id="rZ2QNPtWmysEx4CotY9I-63" style="edgeStyle=none;shape=connector;rounded=0;orthogonalLoop=1;jettySize=auto;html=1;exitX=0.5;exitY=0;exitDx=0;exitDy=0;entryX=0;entryY=0.5;entryDx=0;entryDy=0;labelBackgroundColor=default;strokeColor=#FF0000;fontFamily=Helvetica;fontSize=15;fontColor=default;endArrow=classic;endFill=1;" parent="1" source="rZ2QNPtWmysEx4CotY9I-18" target="rZ2QNPtWmysEx4CotY9I-29" edge="1">
          <mxGeometry relative="1" as="geometry" />
        </mxCell>
        <mxCell id="rZ2QNPtWmysEx4CotY9I-18" value="" style="ellipse;whiteSpace=wrap;html=1;aspect=fixed;direction=south;fillColor=#ffe6cc;strokeColor=#d79b00;fontSize=15;" parent="1" vertex="1">
          <mxGeometry x="394" y="320" width="40" height="40" as="geometry" />
        </mxCell>
        <mxCell id="rZ2QNPtWmysEx4CotY9I-64" style="edgeStyle=none;shape=connector;rounded=0;orthogonalLoop=1;jettySize=auto;html=1;exitX=0.5;exitY=0;exitDx=0;exitDy=0;entryX=0;entryY=0.5;entryDx=0;entryDy=0;labelBackgroundColor=default;strokeColor=#FF0000;fontFamily=Helvetica;fontSize=15;fontColor=default;endArrow=classic;endFill=1;" parent="1" source="rZ2QNPtWmysEx4CotY9I-19" target="rZ2QNPtWmysEx4CotY9I-32" edge="1">
          <mxGeometry relative="1" as="geometry" />
        </mxCell>
        <mxCell id="rZ2QNPtWmysEx4CotY9I-19" value="" style="ellipse;whiteSpace=wrap;html=1;aspect=fixed;direction=south;fillColor=#ffe6cc;strokeColor=#d79b00;fontSize=15;" parent="1" vertex="1">
          <mxGeometry x="394" y="410" width="40" height="40" as="geometry" />
        </mxCell>
        <mxCell id="rZ2QNPtWmysEx4CotY9I-20" value="&lt;span style=&quot;font-size: 15px;&quot;&gt;···&lt;/span&gt;" style="text;html=1;strokeColor=none;fillColor=none;align=center;verticalAlign=middle;whiteSpace=wrap;rounded=0;fontFamily=Times New Roman;fontStyle=1;rotation=90;fontSize=15;" parent="1" vertex="1">
          <mxGeometry x="404" y="280" width="20" height="30" as="geometry" />
        </mxCell>
        <mxCell id="rZ2QNPtWmysEx4CotY9I-21" value="&lt;span style=&quot;font-size: 15px;&quot;&gt;···&lt;/span&gt;" style="text;html=1;strokeColor=none;fillColor=none;align=center;verticalAlign=middle;whiteSpace=wrap;rounded=0;fontFamily=Times New Roman;fontStyle=1;rotation=90;fontSize=15;" parent="1" vertex="1">
          <mxGeometry x="404" y="370" width="20" height="30" as="geometry" />
        </mxCell>
        <mxCell id="rZ2QNPtWmysEx4CotY9I-52" style="edgeStyle=none;shape=connector;rounded=0;orthogonalLoop=1;jettySize=auto;html=1;exitX=0.5;exitY=0;exitDx=0;exitDy=0;entryX=0.5;entryY=1;entryDx=0;entryDy=0;labelBackgroundColor=default;strokeColor=default;fontFamily=Helvetica;fontSize=15;fontColor=default;endArrow=none;endFill=0;" parent="1" source="rZ2QNPtWmysEx4CotY9I-22" target="rZ2QNPtWmysEx4CotY9I-5" edge="1">
          <mxGeometry relative="1" as="geometry" />
        </mxCell>
        <mxCell id="rZ2QNPtWmysEx4CotY9I-53" style="edgeStyle=none;shape=connector;rounded=0;orthogonalLoop=1;jettySize=auto;html=1;exitX=0.5;exitY=0;exitDx=0;exitDy=0;entryX=0.5;entryY=1;entryDx=0;entryDy=0;labelBackgroundColor=default;strokeColor=default;fontFamily=Helvetica;fontSize=15;fontColor=default;endArrow=none;endFill=0;" parent="1" source="rZ2QNPtWmysEx4CotY9I-22" target="rZ2QNPtWmysEx4CotY9I-18" edge="1">
          <mxGeometry relative="1" as="geometry" />
        </mxCell>
        <mxCell id="rZ2QNPtWmysEx4CotY9I-54" style="edgeStyle=none;shape=connector;rounded=0;orthogonalLoop=1;jettySize=auto;html=1;exitX=0.5;exitY=0;exitDx=0;exitDy=0;entryX=0.5;entryY=1;entryDx=0;entryDy=0;labelBackgroundColor=default;strokeColor=default;fontFamily=Helvetica;fontSize=15;fontColor=default;endArrow=none;endFill=0;" parent="1" source="rZ2QNPtWmysEx4CotY9I-22" target="rZ2QNPtWmysEx4CotY9I-19" edge="1">
          <mxGeometry relative="1" as="geometry" />
        </mxCell>
        <mxCell id="rZ2QNPtWmysEx4CotY9I-22" value="" style="ellipse;whiteSpace=wrap;html=1;aspect=fixed;direction=south;fillColor=#dae8fc;strokeColor=#6c8ebf;fontSize=15;" parent="1" vertex="1">
          <mxGeometry x="260" y="285" width="40" height="40" as="geometry" />
        </mxCell>
        <mxCell id="rZ2QNPtWmysEx4CotY9I-23" value="&lt;span style=&quot;font-size: 15px;&quot;&gt;···&lt;/span&gt;" style="text;html=1;strokeColor=none;fillColor=none;align=center;verticalAlign=middle;whiteSpace=wrap;rounded=0;fontFamily=Times New Roman;fontStyle=1;rotation=90;fontSize=15;" parent="1" vertex="1">
          <mxGeometry x="270" y="325" width="20" height="30" as="geometry" />
        </mxCell>
        <mxCell id="rZ2QNPtWmysEx4CotY9I-57" style="edgeStyle=none;shape=connector;rounded=0;orthogonalLoop=1;jettySize=auto;html=1;exitX=0.5;exitY=0;exitDx=0;exitDy=0;entryX=0.5;entryY=1;entryDx=0;entryDy=0;labelBackgroundColor=default;strokeColor=default;fontFamily=Helvetica;fontSize=15;fontColor=default;endArrow=none;endFill=0;" parent="1" source="rZ2QNPtWmysEx4CotY9I-25" target="rZ2QNPtWmysEx4CotY9I-5" edge="1">
          <mxGeometry relative="1" as="geometry" />
        </mxCell>
        <mxCell id="rZ2QNPtWmysEx4CotY9I-58" style="edgeStyle=none;shape=connector;rounded=0;orthogonalLoop=1;jettySize=auto;html=1;exitX=0.5;exitY=0;exitDx=0;exitDy=0;entryX=0.5;entryY=1;entryDx=0;entryDy=0;labelBackgroundColor=default;strokeColor=default;fontFamily=Helvetica;fontSize=15;fontColor=default;endArrow=none;endFill=0;" parent="1" source="rZ2QNPtWmysEx4CotY9I-25" target="rZ2QNPtWmysEx4CotY9I-19" edge="1">
          <mxGeometry relative="1" as="geometry" />
        </mxCell>
        <mxCell id="rZ2QNPtWmysEx4CotY9I-25" value="" style="ellipse;whiteSpace=wrap;html=1;aspect=fixed;direction=south;fillColor=#dae8fc;strokeColor=#6c8ebf;fontSize=15;" parent="1" vertex="1">
          <mxGeometry x="260" y="355" width="40" height="40" as="geometry" />
        </mxCell>
        <mxCell id="rZ2QNPtWmysEx4CotY9I-59" style="edgeStyle=none;shape=connector;rounded=0;orthogonalLoop=1;jettySize=auto;html=1;exitX=0.5;exitY=0;exitDx=0;exitDy=0;entryX=0.5;entryY=1;entryDx=0;entryDy=0;labelBackgroundColor=default;strokeColor=default;fontFamily=Helvetica;fontSize=15;fontColor=default;endArrow=none;endFill=0;" parent="1" source="rZ2QNPtWmysEx4CotY9I-26" target="rZ2QNPtWmysEx4CotY9I-5" edge="1">
          <mxGeometry relative="1" as="geometry" />
        </mxCell>
        <mxCell id="rZ2QNPtWmysEx4CotY9I-60" style="edgeStyle=none;shape=connector;rounded=0;orthogonalLoop=1;jettySize=auto;html=1;exitX=0.5;exitY=0;exitDx=0;exitDy=0;entryX=0.5;entryY=1;entryDx=0;entryDy=0;labelBackgroundColor=default;strokeColor=default;fontFamily=Helvetica;fontSize=15;fontColor=default;endArrow=none;endFill=0;" parent="1" source="rZ2QNPtWmysEx4CotY9I-26" target="rZ2QNPtWmysEx4CotY9I-18" edge="1">
          <mxGeometry relative="1" as="geometry" />
        </mxCell>
        <mxCell id="rZ2QNPtWmysEx4CotY9I-61" style="edgeStyle=none;shape=connector;rounded=0;orthogonalLoop=1;jettySize=auto;html=1;exitX=0.5;exitY=0;exitDx=0;exitDy=0;entryX=0.5;entryY=1;entryDx=0;entryDy=0;labelBackgroundColor=default;strokeColor=default;fontFamily=Helvetica;fontSize=15;fontColor=default;endArrow=none;endFill=0;" parent="1" source="rZ2QNPtWmysEx4CotY9I-26" target="rZ2QNPtWmysEx4CotY9I-19" edge="1">
          <mxGeometry relative="1" as="geometry" />
        </mxCell>
        <mxCell id="rZ2QNPtWmysEx4CotY9I-26" value="" style="ellipse;whiteSpace=wrap;html=1;aspect=fixed;direction=south;fillColor=#dae8fc;strokeColor=#6c8ebf;fontSize=15;" parent="1" vertex="1">
          <mxGeometry x="260" y="430" width="40" height="40" as="geometry" />
        </mxCell>
        <mxCell id="rZ2QNPtWmysEx4CotY9I-27" value="&lt;span style=&quot;font-size: 15px;&quot;&gt;···&lt;/span&gt;" style="text;html=1;strokeColor=none;fillColor=none;align=center;verticalAlign=middle;whiteSpace=wrap;rounded=0;fontFamily=Times New Roman;fontStyle=1;rotation=90;fontSize=15;" parent="1" vertex="1">
          <mxGeometry x="270" y="400" width="20" height="30" as="geometry" />
        </mxCell>
        <mxCell id="rZ2QNPtWmysEx4CotY9I-28" value="&lt;font style=&quot;font-size: 15px;&quot;&gt;y&lt;/font&gt;&lt;sub style=&quot;&quot;&gt;&lt;font style=&quot;font-size: 10px;&quot;&gt;1&lt;/font&gt;&lt;/sub&gt;" style="text;html=1;strokeColor=none;fillColor=none;align=center;verticalAlign=middle;whiteSpace=wrap;rounded=0;fontFamily=Times New Roman;fontStyle=1;fontColor=#FF0000;fontSize=15;" parent="1" vertex="1">
          <mxGeometry x="465" y="235" width="20" height="30" as="geometry" />
        </mxCell>
        <mxCell id="rZ2QNPtWmysEx4CotY9I-29" value="&lt;font style=&quot;font-size: 15px;&quot;&gt;y&lt;/font&gt;&lt;sub style=&quot;&quot;&gt;&lt;font style=&quot;font-size: 10px;&quot;&gt;j&lt;/font&gt;&lt;/sub&gt;" style="text;html=1;strokeColor=none;fillColor=none;align=center;verticalAlign=middle;whiteSpace=wrap;rounded=0;fontFamily=Times New Roman;fontStyle=1;fontColor=#FF0000;fontSize=15;" parent="1" vertex="1">
          <mxGeometry x="465" y="325" width="20" height="30" as="geometry" />
        </mxCell>
        <mxCell id="rZ2QNPtWmysEx4CotY9I-30" value="&lt;span style=&quot;font-size: 15px;&quot;&gt;···&lt;/span&gt;" style="text;html=1;strokeColor=none;fillColor=none;align=center;verticalAlign=middle;whiteSpace=wrap;rounded=0;fontFamily=Times New Roman;fontStyle=1;rotation=90;fontSize=15;" parent="1" vertex="1">
          <mxGeometry x="465" y="280" width="20" height="30" as="geometry" />
        </mxCell>
        <mxCell id="rZ2QNPtWmysEx4CotY9I-31" value="&lt;span style=&quot;font-size: 15px;&quot;&gt;···&lt;/span&gt;" style="text;html=1;strokeColor=none;fillColor=none;align=center;verticalAlign=middle;whiteSpace=wrap;rounded=0;fontFamily=Times New Roman;fontStyle=1;rotation=90;fontSize=15;" parent="1" vertex="1">
          <mxGeometry x="465" y="370" width="20" height="30" as="geometry" />
        </mxCell>
        <mxCell id="rZ2QNPtWmysEx4CotY9I-32" value="&lt;font style=&quot;font-size: 15px;&quot;&gt;y&lt;/font&gt;&lt;sub style=&quot;&quot;&gt;&lt;font style=&quot;font-size: 10px;&quot;&gt;m&lt;/font&gt;&lt;/sub&gt;" style="text;html=1;strokeColor=none;fillColor=none;align=center;verticalAlign=middle;whiteSpace=wrap;rounded=0;fontFamily=Times New Roman;fontStyle=1;fontColor=#FF0000;fontSize=15;" parent="1" vertex="1">
          <mxGeometry x="465" y="415" width="20" height="30" as="geometry" />
        </mxCell>
        <mxCell id="rZ2QNPtWmysEx4CotY9I-65" value="&lt;font style=&quot;font-size: 15px;&quot;&gt;z&lt;/font&gt;&lt;sub style=&quot;&quot;&gt;&lt;font style=&quot;font-size: 10px;&quot;&gt;1&lt;/font&gt;&lt;/sub&gt;" style="text;html=1;strokeColor=none;fillColor=none;align=center;verticalAlign=middle;whiteSpace=wrap;rounded=0;fontFamily=Times New Roman;fontStyle=1;fontColor=#6c8ebf;fontSize=15;" parent="1" vertex="1">
          <mxGeometry x="248" y="196" width="20" height="30" as="geometry" />
        </mxCell>
        <mxCell id="rZ2QNPtWmysEx4CotY9I-66" value="&lt;font style=&quot;font-size: 15px;&quot;&gt;z&lt;/font&gt;&lt;sub style=&quot;&quot;&gt;&lt;font style=&quot;font-size: 10px;&quot;&gt;2&lt;/font&gt;&lt;/sub&gt;" style="text;html=1;strokeColor=none;fillColor=none;align=center;verticalAlign=middle;whiteSpace=wrap;rounded=0;fontFamily=Times New Roman;fontStyle=1;fontColor=#6c8ebf;fontSize=15;" parent="1" vertex="1">
          <mxGeometry x="248" y="270" width="20" height="30" as="geometry" />
        </mxCell>
        <mxCell id="rZ2QNPtWmysEx4CotY9I-67" value="&lt;font style=&quot;font-size: 15px;&quot;&gt;z&lt;/font&gt;&lt;sub style=&quot;&quot;&gt;&lt;font style=&quot;font-size: 10px;&quot;&gt;h&lt;/font&gt;&lt;/sub&gt;" style="text;html=1;strokeColor=none;fillColor=none;align=center;verticalAlign=middle;whiteSpace=wrap;rounded=0;fontFamily=Times New Roman;fontStyle=1;fontColor=#6c8ebf;fontSize=15;" parent="1" vertex="1">
          <mxGeometry x="248" y="339" width="20" height="30" as="geometry" />
        </mxCell>
        <mxCell id="rZ2QNPtWmysEx4CotY9I-68" value="&lt;font style=&quot;font-size: 15px;&quot;&gt;z&lt;/font&gt;&lt;sub style=&quot;&quot;&gt;&lt;font style=&quot;font-size: 10px;&quot;&gt;t&lt;/font&gt;&lt;/sub&gt;" style="text;html=1;strokeColor=none;fillColor=none;align=center;verticalAlign=middle;whiteSpace=wrap;rounded=0;fontFamily=Times New Roman;fontStyle=1;fontColor=#6c8ebf;fontSize=15;" parent="1" vertex="1">
          <mxGeometry x="250" y="413" width="20" height="30" as="geometry" />
        </mxCell>
        <mxCell id="rZ2QNPtWmysEx4CotY9I-43" style="edgeStyle=none;shape=connector;rounded=0;orthogonalLoop=1;jettySize=auto;html=1;exitX=0.5;exitY=0;exitDx=0;exitDy=0;entryX=0.5;entryY=1;entryDx=0;entryDy=0;labelBackgroundColor=default;strokeColor=default;fontFamily=Helvetica;fontSize=15;fontColor=default;endArrow=none;endFill=0;" parent="1" source="rZ2QNPtWmysEx4CotY9I-10" target="rZ2QNPtWmysEx4CotY9I-25" edge="1">
          <mxGeometry relative="1" as="geometry" />
        </mxCell>
        <mxCell id="rZ2QNPtWmysEx4CotY9I-71" value="&lt;font style=&quot;font-size: 15px;&quot;&gt;v&lt;/font&gt;&lt;sub style=&quot;&quot;&gt;&lt;font style=&quot;font-size: 10px;&quot;&gt;ih&lt;/font&gt;&lt;/sub&gt;" style="edgeLabel;html=1;align=center;verticalAlign=middle;resizable=0;points=[];fontSize=15;fontFamily=Times New Roman;fontColor=#FF0000;fontStyle=1;imageWidth=24;labelBackgroundColor=none;" parent="rZ2QNPtWmysEx4CotY9I-43" vertex="1" connectable="0">
          <mxGeometry x="-0.1271" y="-1" relative="1" as="geometry">
            <mxPoint x="28" y="11" as="offset" />
          </mxGeometry>
        </mxCell>
        <mxCell id="rZ2QNPtWmysEx4CotY9I-56" style="edgeStyle=none;shape=connector;rounded=0;orthogonalLoop=1;jettySize=auto;html=1;exitX=0.5;exitY=0;exitDx=0;exitDy=0;entryX=0.5;entryY=1;entryDx=0;entryDy=0;labelBackgroundColor=default;strokeColor=default;fontFamily=Helvetica;fontSize=15;fontColor=default;endArrow=none;endFill=0;" parent="1" source="rZ2QNPtWmysEx4CotY9I-25" target="rZ2QNPtWmysEx4CotY9I-18" edge="1">
          <mxGeometry relative="1" as="geometry" />
        </mxCell>
        <mxCell id="rZ2QNPtWmysEx4CotY9I-72" value="&lt;font style=&quot;font-size: 15px;&quot;&gt;w&lt;/font&gt;&lt;sub style=&quot;&quot;&gt;&lt;font style=&quot;font-size: 10px;&quot;&gt;hj&lt;/font&gt;&lt;/sub&gt;" style="edgeLabel;html=1;align=center;verticalAlign=middle;resizable=0;points=[];fontSize=15;fontFamily=Times New Roman;fontColor=#FF0000;fontStyle=1;rounded=0;labelBackgroundColor=none;" parent="rZ2QNPtWmysEx4CotY9I-56" vertex="1" connectable="0">
          <mxGeometry x="-0.5506" y="-3" relative="1" as="geometry">
            <mxPoint x="-1" as="offset" />
          </mxGeometry>
        </mxCell>
        <mxCell id="nKI1L4i4UCVDvrWwwa-b-1" value="输入层" style="text;html=1;strokeColor=none;fillColor=none;align=center;verticalAlign=middle;whiteSpace=wrap;rounded=0;fontFamily=楷体;fontStyle=1;fontSize=15;labelBackgroundColor=none;" parent="1" vertex="1">
          <mxGeometry x="120" y="178" width="60" height="30" as="geometry" />
        </mxCell>
      </root>
    </mxGraphModel>
  </diagram>
</mxfile>
